<svg width="18" height="16" viewBox="0 0 18 16" fill="none" xmlns="http://www.w3.org/2000/svg">
<path fill-rule="evenodd" clip-rule="evenodd" d="M9.52355 16C10.072 16 10.5208 15.55 10.5208 15C10.5208 14.45 10.072 14 9.52355 14C8.97507 14 8.52632 14.45 8.52632 15C8.52632 15.55 8.97507 16 9.52355 16ZM13.0139 16C13.5623 16 14.0111 15.55 14.0111 15C14.0111 14.45 13.5623 14 13.0139 14C12.4654 14 12.0166 14.45 12.0166 15C12.0166 15.55 12.4654 16 13.0139 16ZM7.57895 10.75L8.05263 12H14.7091C14.9834 12 15.2078 12.225 15.2078 12.5C15.2078 12.775 14.9834 13 14.7091 13H7.72853C7.52909 13 7.32964 12.875 7.25485 12.675L2.9169 1H0.498615C0.224377 1 0 0.775 0 0.5C0 0.225 0.224377 0 0.498615 0H3.241C3.44044 0 3.63989 0.125 3.71468 0.325L5.06094 4H17.5014C17.8255 4 18.0748 4.325 17.9751 4.65L16.2299 10.4C16.1551 10.6 15.9806 10.75 15.7562 10.75H7.57895ZM7.20499 9.75L5.4349 5H16.8781L15.3823 9.75H7.20499Z" fill="#333333"/>
</svg>
