<svg width="15" height="15" viewBox="0 0 15 15" fill="none" xmlns="http://www.w3.org/2000/svg">
<path d="M14.6667 2.83333L12.1667 0.333333C11.9167 0.0833333 11.6667 0 11.3333 0C11 0 10.6667 0.0833333 10.4167 0.333333L0.166667 10.6667L0 13.75C0 14.0833 0.0833333 14.3333 0.333333 14.6667C0.583333 14.9167 0.833333 15 1.16667 15L4.33333 14.8333L14.6667 4.58333C14.9167 4.33333 15 4 15 3.66667C15 3.33333 14.9167 3.08333 14.6667 2.83333ZM1.16667 14.0833C1.08333 14.0833 1 14 1 14C1 14 0.916667 13.9167 0.916667 13.8333L1 11.75L3.25 14L1.16667 14.0833ZM4.16667 13.6667L1.33333 10.8333L9.5 2.66667L12.25 5.41667L4.16667 13.6667ZM13.9167 3.91667L13 4.83333L10.25 2.08333L11.1667 1.16667C11.25 1.08333 11.25 1.08333 11.3333 1.08333C11.4167 1.08333 11.4167 1.08333 11.5 1.16667L14 3.66667C14 3.66667 14.0833 3.75 14.0833 3.83333C14 3.83333 14 3.83333 13.9167 3.91667Z" fill="#6D2EFF"/>
</svg>
