<svg width="16" height="16" viewBox="0 0 16 16" fill="none" xmlns="http://www.w3.org/2000/svg">
<path d="M10.9628 10.1832C11.8871 9.06691 12.3958 7.66417 12.3958 6.21898C12.3958 2.78957 9.61544 0 6.19843 0C2.78036 0 0 2.78957 0 6.21898C0 9.64732 2.78036 12.4369 6.19843 12.4369C7.66422 12.4369 9.08348 11.9095 10.2066 10.9503L15.1539 15.9141L15.2407 16L16 15.2381L10.9628 10.1832ZM11.3224 6.21898C11.3213 9.05312 9.0232 11.3588 6.19843 11.3588C3.37365 11.3588 1.07555 9.05312 1.07555 6.21898C1.07555 3.38484 3.37365 1.07912 6.19843 1.07912C9.0232 1.07912 11.3224 3.38484 11.3224 6.21898Z" fill="#333333"/>
</svg>
