<svg width="21" height="20" viewBox="0 0 21 20" fill="none" xmlns="http://www.w3.org/2000/svg">
<path d="M17.7847 0H3.21531C1.4067 0 0 1.40704 0 3.21608V16.7839C0 18.593 1.4067 20 3.21531 20H17.7847C19.5933 20 21 18.593 21 16.7839V3.21608C21 1.40704 19.5933 0 17.7847 0ZM19.9952 16.7839C19.9952 17.99 18.9904 18.995 17.7847 18.995H3.21531C2.00957 18.995 1.00478 17.99 1.00478 16.7839V3.21608C1.00478 2.01005 2.00957 1.00503 3.21531 1.00503H17.7847C18.9904 1.00503 19.9952 2.01005 19.9952 3.21608V16.7839Z" fill="#5207FF"/>
<path d="M8.23924 5.9296C8.13876 5.9296 8.03828 5.8291 7.9378 5.8291C7.83732 5.8291 7.83732 5.8291 7.73685 5.9296C7.63637 6.03011 7.53589 6.23111 7.53589 6.43212V13.6683C7.53589 13.8693 7.63637 14.0703 7.83732 14.1708C8.03828 14.2713 8.13876 14.2713 8.33972 14.1708L14.1675 10.5527C14.2679 10.4522 14.3684 10.3517 14.3684 10.1507C14.3684 9.94971 14.1675 9.6482 14.067 9.54769L8.23924 5.9296ZM13 10L8.44019 12.7638V7.23614H8.54067L13 10Z" fill="#5207FF"/>
</svg>
