<svg width="17" height="20" viewBox="0 0 17 20" fill="none" xmlns="http://www.w3.org/2000/svg">
<path d="M1.41667 0C0.607143 0 0 0.606061 0 1.41414V18.6869C0 19.495 0.607143 20.101 1.41667 20.101H15.6845C16.494 20.101 17.1012 19.495 17.1012 18.6869V6.16162C17.1012 5.55556 16.7976 4.74747 16.2917 4.24242L12.8512 0.808081C12.3452 0.30303 11.6369 0 10.9286 0H1.41667ZM15.6845 18.9899H1.41667C1.21429 18.9899 1.0119 18.7879 1.0119 18.5859V1.41414C1.0119 1.21212 1.21429 1.0101 1.41667 1.0101H11.0298H11.131C11.131 1.0101 11.2321 1.0101 11.3333 1.0101H11.4345V5.15152C11.4345 5.45455 11.6369 5.65657 11.9405 5.65657H15.9881V5.75758C15.9881 5.85859 15.9881 5.9596 15.9881 6.06061V18.5859C15.9881 18.7879 15.8869 18.9899 15.6845 18.9899ZM15.2798 4.74747H12.3452V1.81818L15.2798 4.74747Z" fill="#5207FF"/>
<path d="M4.55356 4.74744C4.24999 4.74744 4.04761 4.94946 4.04761 5.25249C4.04761 5.55552 4.24999 5.75754 4.55356 5.75754H8.3988C8.70237 5.75754 8.90475 5.55552 8.90475 5.25249C8.90475 4.94946 8.70237 4.74744 8.3988 4.74744H4.55356Z" fill="#5207FF"/>
<path d="M4.55356 8.28284C4.24999 8.28284 4.04761 8.48486 4.04761 8.78789C4.04761 9.09092 4.24999 9.29294 4.55356 9.29294H12.6488C12.9524 9.29294 13.1548 9.09092 13.1548 8.78789C13.1548 8.48486 12.9524 8.28284 12.6488 8.28284H4.55356Z" fill="#5207FF"/>
<path d="M4.55356 11.8182C4.24999 11.8182 4.04761 12.0203 4.04761 12.3233C4.04761 12.6263 4.24999 12.8283 4.55356 12.8283H12.6488C12.9524 12.8283 13.1548 12.6263 13.1548 12.3233C13.1548 12.0203 12.9524 11.8182 12.6488 11.8182H4.55356Z" fill="#5207FF"/>
<path d="M4.55356 15.3535C4.24999 15.3535 4.04761 15.5555 4.04761 15.8586C4.04761 16.1616 4.24999 16.3636 4.55356 16.3636H12.6488C12.9524 16.3636 13.1548 16.1616 13.1548 15.8586C13.1548 15.5555 12.9524 15.3535 12.6488 15.3535H4.55356Z" fill="#5207FF"/>
</svg>
