<svg width="20" height="15" viewBox="0 0 20 15" fill="none" xmlns="http://www.w3.org/2000/svg">
<path d="M1.81818 0C0.808081 0 0 0.810811 0 1.82432V13.1757C0 14.1892 0.808081 15 1.81818 15H18.1818C19.1919 15 20 14.1892 20 13.1757V1.82432C20 0.810811 19.1919 0 18.1818 0H1.81818ZM18.1818 13.9865H1.81818C1.41414 13.9865 1.11111 13.6824 1.11111 13.277V2.33108L1.31313 2.43243L9.69697 9.72973C9.89899 9.93243 10.202 9.93243 10.404 9.72973L18.9899 2.22973V13.1757C18.9899 13.5811 18.5859 13.9865 18.1818 13.9865ZM10 8.71622L1.41414 1.21622L1.51515 1.11486C1.61616 1.11486 1.71717 1.01351 1.81818 1.01351H18.1818C18.2828 1.01351 18.3838 1.01351 18.4848 1.11486L18.6869 1.21622L18.5859 1.31757L10 8.71622Z" fill="#333333"/>
</svg>
