<svg width="16" height="15" viewBox="0 0 16 15" fill="none" xmlns="http://www.w3.org/2000/svg">
<g clip-path="url(#clip0)">
<path d="M15.4181 10.7455C14.72 10.1455 14.08 9.49091 13.44 8.89091C12.7418 8.23636 11.7527 8.23636 10.9963 8.89091L10.88 8.94545C10.5309 9.27273 10.1818 9.54545 9.83269 9.92727C9.77451 9.87273 9.71632 9.87273 9.65814 9.87273C9.54178 9.81818 9.30905 9.76364 9.19269 9.65455C8.14542 9.05455 7.21451 8.23636 6.22542 7.14545C5.75996 6.65455 5.46905 6.16364 5.23632 5.72727C5.52723 5.45455 5.81814 5.18182 6.10905 4.90909L6.34178 4.69091C7.09814 3.98182 7.09814 3.05455 6.34178 2.34545C6.10905 2.12727 5.87632 1.90909 5.6436 1.69091L5.46905 1.41818C5.35269 1.30909 5.29451 1.25455 5.17814 1.14545C4.94542 0.927273 4.71269 0.709091 4.47996 0.490909C3.78178 -0.163636 2.79269 -0.163636 2.03632 0.490909C1.86178 0.654545 1.68723 0.818182 1.51269 0.981818C1.27996 1.2 1.04723 1.41818 0.814507 1.63636C0.349052 2.07273 0.0581434 2.61818 -3.8404e-05 3.21818C-0.116402 4.2 0.174507 5.07273 0.465416 5.72727C1.04723 7.2 1.97814 8.56364 3.19996 10.0364C4.77087 11.7818 6.63269 13.1455 8.78542 14.1273C10.0072 14.6727 10.9963 14.9455 11.9854 15C12.1018 15 12.1018 15 12.2181 15C13.0909 15 13.7891 14.7273 14.3127 14.1273C14.5454 13.9091 14.7781 13.6909 15.0109 13.4727C15.1272 13.3636 15.2436 13.2545 15.4181 13.1455C16.1745 12.3818 16.1745 11.4545 15.4181 10.7455ZM14.6618 12.4364C14.5454 12.5455 14.4291 12.6545 14.2545 12.7636C14.0218 12.9818 13.7309 13.2545 13.4981 13.5273C13.0909 13.9091 12.6836 14.0727 11.9854 14.0182C11.1709 13.9636 10.24 13.6909 9.19269 13.2545C7.21451 12.3273 5.41087 11.0182 3.89814 9.38182C2.73451 8.07273 1.91996 6.76364 1.33814 5.4C1.10542 4.58182 0.930871 3.98182 0.989052 3.32727C1.04723 2.94545 1.1636 2.67273 1.45451 2.4C1.74542 2.18182 1.97814 1.90909 2.21087 1.69091C2.38542 1.52727 2.55996 1.36364 2.67632 1.25455C2.90905 1.09091 3.0836 0.981818 3.25814 0.981818C3.43269 0.981818 3.60723 1.09091 3.78178 1.25455C4.01451 1.47273 4.24723 1.69091 4.47996 1.90909C4.53814 1.96364 4.65451 2.07273 4.77087 2.18182L5.06178 2.45455C5.29451 2.67273 5.52723 2.89091 5.75996 3.10909C6.16723 3.49091 6.16723 3.76364 5.75996 4.09091L5.46905 4.30909C5.17814 4.58182 4.82905 4.90909 4.47996 5.18182C4.30542 5.34545 4.13087 5.61818 4.30542 6C4.53814 6.6 4.94542 7.14545 5.46905 7.8C6.45814 8.94545 7.50541 9.87273 8.66905 10.5273C8.8436 10.6364 9.01814 10.7455 9.19269 10.8C9.30905 10.8545 9.36723 10.8545 9.4836 10.9091C9.83269 11.0727 10.1818 11.0182 10.4727 10.8C10.88 10.4727 11.2291 10.0909 11.5781 9.76364L11.6945 9.70909C12.0436 9.38182 12.3927 9.38182 12.7418 9.70909C13.3818 10.3091 14.0218 10.9091 14.72 11.5636C15.0109 11.7273 15.0109 12.1091 14.6618 12.4364Z" fill="#6D2EFF"/>
</g>
<defs>
<clipPath id="clip0">
<rect width="16" height="15" fill="white"/>
</clipPath>
</defs>
</svg>
