<svg width="28" height="28" viewBox="0 0 28 28" fill="none" xmlns="http://www.w3.org/2000/svg">
<path d="M27.973 6.0956C27.7004 2.60105 25.5466 0.583918 22.7057 0.17504C22.0568 0.0823606 21.9259 0.055102 18.5888 0.0496503C6.75629 0.0496503 4.16077 -0.473714 1.82698 1.94685C-0.365034 4.22566 0.0820936 6.64622 0.0820936 14.0006C0.0820936 20.1065 -0.981198 26.2288 4.59154 27.668C6.33097 28.1151 21.7623 28.1151 23.5018 27.668C25.8246 27.0683 27.7113 25.1875 27.973 21.9056C28.0058 21.4367 28.0058 6.559 27.973 6.0956ZM23.8017 20.7553C22.2531 24.735 18.0817 24.3098 14.0357 24.3098C9.84256 24.3098 5.80205 24.6859 4.26982 20.7553C3.64276 19.147 3.73 16.6556 3.73 14.006C3.73 10.9858 3.6373 8.87598 4.26982 7.25682C5.80205 3.32068 9.8153 3.69685 14.0357 3.69685C17.9617 3.69685 20.6336 3.45152 22.613 5.42504C24.5651 7.37675 24.3415 9.97722 24.3415 14.0006C24.3415 17.0372 24.4342 19.1143 23.8017 20.7553Z" fill="url(#paint0_linear)"/>
<path d="M13.1138 5.55557C6.24332 5.56102 5.58899 5.69186 5.58899 14.0003C5.58899 22.216 5.82346 22.4504 14.0353 22.4504C18.5393 22.4504 22.2036 22.9792 22.4217 18.1654C23.0488 4.5579 21.9255 5.53921 13.1138 5.55557ZM14.0408 19.2939C11.1181 19.2939 8.74615 16.9224 8.74615 14.0003C8.74615 11.0782 11.1181 8.70666 14.0408 8.70666C16.9635 8.70666 19.33 11.0782 19.33 14.0003C19.33 16.9224 16.9635 19.2939 14.0408 19.2939ZM19.5426 9.73703C18.861 9.73703 18.3049 9.18096 18.3049 8.49949C18.3049 7.81803 18.861 7.26195 19.5426 7.26195C20.2242 7.26195 20.7804 7.81803 20.7804 8.49949C20.7804 9.18096 20.2242 9.73703 19.5426 9.73703Z" fill="url(#paint1_linear)"/>
<path d="M14.0409 10.5649C9.49331 10.5649 9.49877 17.4341 14.0409 17.4341C18.5885 17.4396 18.5831 10.5649 14.0409 10.5649Z" fill="url(#paint2_linear)"/>
<path d="M14.0408 8.71167C11.1181 8.71167 8.74615 11.0832 8.74615 14.0053C8.74615 16.9274 11.1181 19.2989 14.0408 19.2989C16.9635 19.2989 19.33 16.9274 19.33 14.0053C19.33 11.0832 16.9635 8.71167 14.0408 8.71167ZM14.0408 17.4399C9.49864 17.4399 9.49319 10.5707 14.0408 10.5707C18.583 10.5653 18.5884 17.4399 14.0408 17.4399Z" fill="white"/>
<path d="M20.6848 8.97158C20.9464 8.34011 20.6465 7.61617 20.0149 7.35461C19.3833 7.09304 18.6593 7.3929 18.3976 8.02436C18.136 8.65583 18.436 9.37977 19.0675 9.64133C19.6991 9.9029 20.4232 9.60304 20.6848 8.97158Z" fill="white"/>
<path d="M22.6126 5.42473C20.6333 3.44575 17.9614 3.69653 14.0354 3.69653C9.81497 3.69653 5.80173 3.32036 4.2695 7.25105C3.63698 8.87566 3.72968 10.9855 3.72968 14.0003C3.72968 16.6498 3.64243 19.1412 4.2695 20.7495C5.79628 24.6802 9.84224 24.304 14.0354 24.304C18.0814 24.304 22.2528 24.7238 23.8013 20.7495C24.4339 19.1085 24.3412 17.0314 24.3412 14.0003C24.3412 9.97691 24.5647 7.37644 22.6126 5.42473ZM22.4272 18.1654C22.2091 22.9792 18.5449 22.4504 14.0409 22.4504C5.829 22.4504 5.59453 22.216 5.59453 14.0003C5.59453 5.69186 6.24341 5.56102 13.1194 5.55557C21.9256 5.53921 23.0489 4.5579 22.4272 18.1654Z" fill="white"/>
<defs>
<linearGradient id="paint0_linear" x1="1.87186" y1="26.175" x2="27.8143" y2="3.7177" gradientUnits="userSpaceOnUse">
<stop stop-color="#FFDD55"/>
<stop offset="0.5" stop-color="#FF543E"/>
<stop offset="1" stop-color="#C837AB"/>
</linearGradient>
<linearGradient id="paint1_linear" x1="1.85258" y1="26.153" x2="27.7951" y2="3.69549" gradientUnits="userSpaceOnUse">
<stop stop-color="#FFDD55"/>
<stop offset="0.5" stop-color="#FF543E"/>
<stop offset="1" stop-color="#C837AB"/>
</linearGradient>
<linearGradient id="paint2_linear" x1="1.86773" y1="26.1695" x2="27.8102" y2="3.71203" gradientUnits="userSpaceOnUse">
<stop stop-color="#FFDD55"/>
<stop offset="0.5" stop-color="#FF543E"/>
<stop offset="1" stop-color="#C837AB"/>
</linearGradient>
</defs>
</svg>
