<svg width="16" height="16" viewBox="0 0 16 16" fill="none" xmlns="http://www.w3.org/2000/svg">
<path d="M0.392638 16C-0.0987503 16 0.907422 16 0.404336 16L0 16V15.7895V15.6842C0 15.5789 0 15.5789 0 15.4737C0 12.421 2.25767 10 5.00614 10H10.9939C13.7423 10 16 12.5263 16 15.5789C16 15.6842 16 15.6842 16 15.7895L15.9018 15.8947C15.8037 16 15.7055 16 15.7055 16C15.6074 16 15.5092 16 15.5092 16H0.392638ZM1 15H15C14.8037 12.6842 13.0613 11 11 11H5C2.93865 11 1.29448 12.7895 1 15Z" fill="#333333"/>
<path d="M8 8C5.84993 8 4 6.11236 4 3.95506C4 1.79775 5.88282 4.76837e-07 8.03289 4.76837e-07C9.06118 4.76837e-07 10.0895 0.359551 10.8373 1.07865C11.5852 1.79775 12 2.87641 12 3.95506C12 6.20225 10.2436 8 8 8ZM8 1C6.31734 1 5 2.24719 5 3.95506C5 5.66292 6.31734 7 8 7C9.68266 7 11 5.66292 11 3.95506C11 2.24719 9.68266 1 8 1Z" fill="#333333"/>
</svg>
