<svg width="26" height="26" viewBox="0 0 26 26" fill="none" xmlns="http://www.w3.org/2000/svg">
<path d="M13 0C20.1799 0 26 5.8201 26 13C26 20.1799 20.1799 26 13 26C5.8201 26 0 20.1799 0 13C0 5.8201 5.8201 0 13 0Z" fill="#735FF2"/>
<path d="M20.6419 8.84592L20.6374 8.82786C20.2503 7.31794 18.5108 5.69662 16.9128 5.36092L16.8948 5.35791C14.3208 4.8807 11.6792 4.8807 9.10524 5.35791L9.08717 5.36092C7.4892 5.69813 5.74815 7.31794 5.36259 8.82786L5.35807 8.84592C4.88064 10.9369 4.88064 13.1107 5.35807 15.2017L5.36259 15.2198C5.73309 16.665 7.34311 18.211 8.88083 18.6371V20.3231C8.88083 20.9313 9.64894 21.2309 10.0857 20.7898L11.8508 19.0179C13.5392 19.1113 15.232 19.0014 16.8948 18.6927L16.9128 18.6882C18.5093 18.351 20.2503 16.7312 20.6374 15.2213L20.6419 15.2032C21.1194 13.1122 21.1194 10.9384 20.6419 8.84743V8.84592ZM19.2458 14.8961C18.9867 15.8807 17.6659 17.1061 16.6161 17.3319C15.2501 17.5833 13.863 17.6917 12.4744 17.6555C12.4458 17.654 12.4186 17.6661 12.3991 17.6856L11.1114 18.9652L9.74081 20.3246C9.6399 20.427 9.4652 20.3577 9.4652 20.2192V17.4267C9.46369 17.3785 9.42905 17.3394 9.38236 17.3319C8.33261 17.1061 7.01177 15.8807 6.75422 14.8961C6.32499 13.0053 6.32499 11.0423 6.75422 9.15152C7.01177 8.16699 8.33261 6.9431 9.38236 6.71578C11.774 6.2747 14.2245 6.2747 16.6161 6.71578C17.6659 6.94159 18.9867 8.16699 19.2458 9.15152C19.6765 11.0423 19.6765 13.0053 19.2458 14.8961Z" fill="white"/>
<path d="M15.3373 16C15.1775 15.9526 15.0265 15.9215 14.886 15.8667C13.4313 15.2801 12.0936 14.5262 11.0326 13.3709C10.4436 12.7132 9.9494 11.977 9.56022 11.1846C9.37081 10.8128 9.21099 10.4262 9.04821 10.0411C8.90024 9.69006 9.11924 9.32716 9.34861 9.06351C9.56466 8.81615 9.84138 8.62655 10.1418 8.48584C10.3771 8.37623 10.6079 8.43992 10.7781 8.63247C11.148 9.04869 11.4884 9.48713 11.7651 9.96852C11.9338 10.2648 11.8879 10.6291 11.5801 10.8306C11.5061 10.8809 11.4381 10.9372 11.3685 10.9935C11.3064 11.038 11.2531 11.0942 11.2087 11.1565C11.1362 11.2749 11.1258 11.4216 11.1791 11.5505C11.5564 12.5577 12.1942 13.3427 13.2419 13.7649C13.4091 13.8315 13.5778 13.91 13.7702 13.8893C14.0928 13.8522 14.1993 13.5086 14.4243 13.3294C14.6462 13.1531 14.9289 13.1516 15.1671 13.2968C15.4054 13.4449 15.6377 13.6004 15.8671 13.7589C16.092 13.9159 16.3169 14.067 16.5256 14.2448C16.7253 14.4166 16.7949 14.6403 16.6809 14.8713C16.4752 15.2964 16.1749 15.649 15.7428 15.8741C15.6199 15.9378 15.4734 15.9585 15.3358 16C15.1775 15.9526 15.4734 15.9585 15.3358 16H15.3373ZM13.0969 8C14.9984 8.05184 16.5596 9.27532 16.8955 11.0972C16.9532 11.4083 16.9725 11.7252 16.9991 12.0407C17.0094 12.174 16.931 12.2999 16.7845 12.3014C16.6321 12.3014 16.5626 12.1785 16.5522 12.0467C16.533 11.7845 16.5196 11.5208 16.4826 11.2616C16.2858 9.88854 15.1553 8.75245 13.745 8.50805C13.5334 8.47102 13.3159 8.46214 13.1013 8.43992C12.9652 8.42511 12.7861 8.4177 12.7566 8.25477C12.7314 8.11702 12.8513 8.00741 12.9859 8.00148C13.0229 7.99852 13.0599 8.00148 13.0969 8.00148C14.9984 8.05184 13.0599 8.00148 13.0969 8.00148V8Z" fill="white"/>
<path d="M16 12.6193C15.9954 12.6497 15.9938 12.7246 15.9785 12.7935C15.9262 13.0466 15.6247 13.079 15.557 12.8239C15.5385 12.7449 15.5308 12.6639 15.5324 12.5809C15.5324 12.0462 15.4401 11.5137 15.2293 11.0479C15.0063 10.5619 14.6802 10.1731 14.291 9.92808C14.0541 9.7843 13.8033 9.68507 13.5449 9.63445C13.4311 9.61217 13.3172 9.598 13.205 9.57775C13.0665 9.55345 12.9942 9.44207 13.0004 9.26792C13.0065 9.10592 13.0988 8.99049 13.2373 9.00062C13.691 9.03504 14.1295 9.15857 14.5325 9.43195C15.3539 9.98478 15.8216 10.8596 15.9585 12.024C15.9646 12.0787 15.9738 12.1313 15.9785 12.186C15.9862 12.3156 15.9908 12.4472 16 12.6193C15.9954 12.6497 15.9908 12.4472 16 12.6193Z" fill="white"/>
<path d="M14.7769 11.9991C14.576 12.0028 14.4681 11.895 14.4476 11.7184C14.4346 11.5938 14.4234 11.4693 14.3918 11.3466C14.336 11.1049 14.1946 10.8929 13.9955 10.7461C13.8969 10.6773 13.7872 10.6271 13.6718 10.5955C13.5249 10.5546 13.3742 10.5657 13.2254 10.5304C13.0672 10.4932 12.9798 10.3687 13.004 10.2237C13.0282 10.0935 13.1603 9.99129 13.3072 10.0006C14.2355 10.0657 14.8978 10.5286 14.9927 11.5845C14.9983 11.6589 15.0076 11.7388 14.989 11.8095C14.9685 11.9136 14.8829 11.9917 14.7769 11.9991C14.576 12.0028 14.8662 11.9935 14.7769 11.9991Z" fill="white"/>
</svg>
