<svg width="28" height="28" viewBox="0 0 28 28" fill="none" xmlns="http://www.w3.org/2000/svg">
<path d="M27.9732 6.09536C27.7006 2.60081 25.5467 0.583674 22.7058 0.174796C22.0569 0.0821164 21.9261 0.0548579 18.589 0.0494062C6.75644 0.0494062 4.16092 -0.473958 1.82713 1.9466C-0.364881 4.22542 0.0822462 6.64598 0.0822462 14.0003C0.0822462 20.1063 -0.981045 26.2285 4.59169 27.6678C6.33113 28.1148 21.7625 28.1148 23.5019 27.6678C25.8248 27.0681 27.7115 25.1873 27.9732 21.9053C28.0059 21.4365 28.0059 6.55875 27.9732 6.09536ZM21.4353 18.6234L19.2488 18.6561C19.2488 18.6561 18.7798 18.7488 18.1637 18.3236C17.3457 17.762 16.5769 16.3064 15.9771 16.4972C15.3664 16.688 15.3882 18.0019 15.3882 18.0019C15.3882 18.0019 15.3936 18.2799 15.2519 18.4326C15.0992 18.5961 14.8047 18.6289 14.8047 18.6289H13.8287C13.8287 18.6289 11.6694 18.7597 9.77183 16.7807C7.69977 14.6218 5.86764 10.3422 5.86764 10.3422C5.86764 10.3422 5.76404 10.0588 5.87855 9.92246C6.00941 9.76981 6.35839 9.75891 6.35839 9.75891L8.69763 9.74255C8.69763 9.74255 8.91574 9.78072 9.07387 9.8952C9.20474 9.99333 9.27563 10.1678 9.27563 10.1678C9.27563 10.1678 9.65187 11.1218 10.1535 11.9887C11.1296 13.6787 11.5876 14.044 11.9148 13.8641C12.4001 13.6024 12.2528 11.4817 12.2528 11.4817C12.2528 11.4817 12.2637 10.713 12.0075 10.3695C11.8112 10.1024 11.4458 10.026 11.2822 10.0042C11.1514 9.98788 11.3695 9.68259 11.6476 9.54629C12.0674 9.33913 12.809 9.32823 13.6869 9.33913C14.3685 9.34458 14.5703 9.38819 14.8375 9.45361C15.6445 9.64988 15.3718 10.3968 15.3718 12.2013C15.3718 12.7792 15.2682 13.5915 15.6826 13.8586C15.8626 13.9731 16.2988 13.875 17.3948 12.0159C17.9128 11.1327 18.3054 10.0969 18.3054 10.0969C18.3054 10.0969 18.3927 9.91156 18.5235 9.83523C18.6599 9.75346 18.8398 9.78072 18.8398 9.78072L21.299 9.76436C21.299 9.76436 22.0406 9.67714 22.1605 10.0097C22.2859 10.3586 21.8824 11.1764 20.8791 12.5175C19.2269 14.7145 19.047 14.5128 20.4156 15.7831C21.7243 16.9988 21.997 17.5876 22.0406 17.6639C22.5749 18.5525 21.4353 18.6234 21.4353 18.6234Z" fill="#5181B8"/>
<path d="M20.4098 15.7764C19.0412 14.5061 19.2211 14.7078 20.8733 12.5108C21.8766 11.1697 22.2801 10.3519 22.1547 10.003C22.0347 9.67045 21.2932 9.75767 21.2932 9.75767L18.8339 9.77403C18.8339 9.77403 18.6486 9.74677 18.5177 9.82855C18.3868 9.91032 18.2996 10.0902 18.2996 10.0902C18.2996 10.0902 17.9124 11.1261 17.389 12.0092C16.293 13.8683 15.8567 13.9664 15.6768 13.8519C15.2624 13.5848 15.366 12.7725 15.366 12.1946C15.366 10.3901 15.6386 9.64319 14.8316 9.44692C14.5644 9.3815 14.3681 9.33789 13.6811 9.33244C12.8032 9.32154 12.0616 9.33244 11.6417 9.5396C11.3636 9.6759 11.1455 9.98119 11.2764 9.99755C11.44 10.0194 11.8053 10.0957 12.0016 10.3628C12.2524 10.7063 12.247 11.475 12.247 11.475C12.247 11.475 12.3942 13.5957 11.9089 13.8574C11.5763 14.0373 11.1237 13.672 10.1477 11.982C9.64602 11.1152 9.26978 10.1611 9.26978 10.1611C9.26978 10.1611 9.19889 9.98119 9.06803 9.88851C8.9099 9.77403 8.69178 9.73587 8.69178 9.73587L6.35254 9.75222C6.35254 9.75222 6.00357 9.76312 5.8727 9.91577C5.75819 10.0521 5.86179 10.3356 5.86179 10.3356C5.86179 10.3356 7.69393 14.6152 9.76598 16.774C11.669 18.753 13.8228 18.6222 13.8228 18.6222H14.7989C14.7989 18.6222 15.0933 18.5895 15.246 18.4259C15.3823 18.2787 15.3823 17.9952 15.3823 17.9952C15.3823 17.9952 15.366 16.6814 15.9712 16.4905C16.571 16.2997 17.3399 17.7608 18.1578 18.3169C18.774 18.7421 19.2429 18.6494 19.2429 18.6494L21.4295 18.6167C21.4295 18.6167 22.5746 18.5458 22.0293 17.6463C21.9911 17.5809 21.7185 16.9921 20.4098 15.7764Z" fill="white"/>
</svg>
