<svg width="26" height="26" viewBox="0 0 26 26" fill="none" xmlns="http://www.w3.org/2000/svg">
<path d="M13 0C20.1799 0 26 5.8201 26 13C26 20.1799 20.1799 26 13 26C5.8201 26 0 20.1799 0 13C0 5.8201 5.8201 0 13 0Z" fill="#43D954"/>
<path d="M21 12.7947C21 17.0967 17.4847 20.59 13.1473 20.59C11.772 20.59 10.4767 20.2353 9.35134 19.6207L5 21L6.42 16.816C5.70266 15.6427 5.29 14.266 5.29 12.7953C5.29 8.49134 8.80666 5 13.1473 5C17.4847 5 21 8.49134 21 12.7947ZM13.1473 6.24134C9.50666 6.24134 6.54131 9.17934 6.54131 12.7953C6.54131 14.2313 7.00931 15.5593 7.79866 16.6393L6.97597 19.0667L9.51397 18.2647C10.5553 18.95 11.8046 19.3453 13.1473 19.3453C16.7853 19.3453 19.75 16.406 19.75 12.79C19.75 9.18 16.7853 6.24134 13.1473 6.24134ZM17.1107 14.5907C17.064 14.5127 16.936 14.4653 16.746 14.3627C16.548 14.2673 15.6053 13.8107 15.424 13.748C15.2513 13.684 15.1233 13.6526 14.9953 13.8426C14.8613 14.0313 14.4967 14.466 14.3853 14.5906C14.2667 14.7173 14.156 14.7333 13.9653 14.6387C13.7773 14.5447 13.1533 14.342 12.4193 13.6887C11.8487 13.1853 11.46 12.5607 11.3487 12.3667C11.234 12.174 11.3354 12.0713 11.4314 11.9773C11.5214 11.8907 11.6247 11.752 11.72 11.6414C11.8194 11.5314 11.8507 11.4527 11.914 11.326C11.978 11.1954 11.9453 11.0854 11.898 10.9867C11.8507 10.8913 11.4627 9.95337 11.304 9.57003C11.142 9.18803 10.9847 9.25138 10.8733 9.25138C10.7573 9.25138 10.632 9.23537 10.5013 9.23537C10.3747 9.23537 10.1654 9.28206 9.98669 9.47603C9.81269 9.66534 9.31334 10.1273 9.31334 11.0687C9.31334 12.0073 10.0027 12.9194 10.1013 13.0447C10.1973 13.1713 11.4313 15.1593 13.3907 15.9247C15.3474 16.69 15.3474 16.4373 15.7034 16.4053C16.0507 16.3733 16.8434 15.9413 17.002 15.4987C17.158 15.0487 17.158 14.67 17.1107 14.5907Z" fill="white"/>
</svg>
