<svg width="28" height="28" viewBox="0 0 28 28" fill="none" xmlns="http://www.w3.org/2000/svg">
<path d="M27.9728 6.09536C27.7002 2.60081 25.5463 0.583674 22.7054 0.174796C22.0565 0.0821164 21.9257 0.0548579 18.5886 0.0494061C6.75605 0.0494061 4.16053 -0.473958 1.82674 1.9466C-0.365278 4.22542 0.0818495 6.64598 0.0818495 14.0003C0.0818495 20.1063 -0.981442 26.2285 4.59129 27.6678C6.33073 28.1148 21.7621 28.1148 23.5015 27.6678C25.8244 27.0681 27.7111 25.1873 27.9728 21.9053C28.0055 21.4365 28.0055 6.55875 27.9728 6.09536ZM9.62966 20.9458V7.05486L20.5461 14.0003L9.62966 20.9458Z" fill="#E52D27"/>
<path d="M9.62952 20.9459L20.546 14.0004L9.62952 7.05493V20.9459Z" fill="white"/>
</svg>
