<svg width="18" height="20" viewBox="0 0 18 20" fill="none" xmlns="http://www.w3.org/2000/svg">
<path d="M9 20C8.90217 20 9 20 8.80435 20L0.293478 15.7635C0.0978261 15.665 0 15.468 0 15.2709V4.82759C0 4.63054 0.0978261 4.4335 0.293478 4.4335L8.80435 0C8.90217 0 9.09783 0 9.19565 0L17.7065 4.33498C17.9022 4.4335 18 4.63054 18 4.72906V15.1724C18 15.3695 17.9022 15.5665 17.7065 15.5665L9.19565 19.9015C9 20 9 20 9 20ZM9.48913 9.45813V18.8177L17.1196 14.9754V5.61576L14.9674 6.69951V10.0493C14.9674 10.2463 14.8696 10.4433 14.6739 10.4433L12.6196 11.5271C12.4239 11.6256 12.1304 11.5271 12.0326 11.4286C11.9348 11.33 11.9348 11.2315 11.9348 11.133V8.17734L9.48913 9.45813ZM0.978261 14.9754L8.6087 18.8177V9.45813L0.978261 5.61576V14.9754ZM12.8152 7.68473V10.2463L13.8913 9.65517V7.19212L12.8152 7.68473ZM1.56522 4.82759L9 8.57143L11.25 7.38916L3.81522 3.64532L1.56522 4.82759ZM4.8913 3.15271L12.3261 6.89655L13.5 6.30542L6.06522 2.46305L4.8913 3.15271ZM7.1413 1.97044L14.5761 5.71429L16.4348 4.82759L9 0.985222L7.1413 1.97044Z" fill="#333333"/>
</svg>
