<svg width="20" height="20" viewBox="0 0 20 20" fill="none" xmlns="http://www.w3.org/2000/svg">
<path d="M6.33166 16.9849C6.73367 17.1859 7.23618 17.3869 7.63819 17.5879L7.8392 18.995C7.9397 19.598 8.44221 20 9.04523 20H10.8543C11.4573 20 11.9598 19.598 12.0603 18.995L12.2613 17.5879C12.7638 17.4874 13.1658 17.2864 13.6683 16.9849L14.8744 17.7889C15.0754 17.8894 15.2764 17.99 15.5779 17.99C15.8794 17.99 16.1809 17.8894 16.3819 17.6884L17.5879 16.4824C17.99 16.0804 18.0905 15.3769 17.6884 14.9749L16.8844 13.7688C17.0854 13.2663 17.2864 12.8643 17.4874 12.3618L18.8945 12.1608C19.4975 12.0603 19.8995 11.5578 19.8995 10.9548V9.14573C19.8995 8.54271 19.4975 8.0402 18.8945 7.9397L17.4874 7.73869C17.3869 7.23618 17.1859 6.83417 16.8844 6.33166L17.6884 5.12563C17.99 4.62312 17.99 4.0201 17.5879 3.61809L16.3819 2.41206C16.1809 2.21106 15.8794 2.11055 15.5779 2.11055C15.3769 2.11055 15.0754 2.21106 14.8744 2.31156L13.7688 3.01508C13.2663 2.81407 12.8643 2.61307 12.3618 2.41206L12.0603 1.00503C11.9598 0.40201 11.4573 0 10.8543 0H9.04523C8.54271 0 8.0402 0.40201 7.9397 1.00503L7.63819 2.41206C7.13568 2.61307 6.73367 2.81407 6.23116 3.01508L5.02513 2.21106C4.82412 2.01005 4.62312 2.01005 4.32161 2.01005C4.0201 2.01005 3.71859 2.11055 3.51759 2.31156L2.31156 3.61809C1.80905 4.0201 1.80905 4.62312 2.11055 5.12563L3.01508 6.33166C2.71357 6.73367 2.61307 7.23618 2.41206 7.73869L1.00503 7.9397C0.40201 8.0402 0 8.54271 0 9.14573V10.9548C0 11.5578 0.40201 12.0603 1.00503 12.1608L2.51256 12.3618C2.61307 12.8643 2.81407 13.2663 3.11558 13.6683L2.31156 14.7739C2.01005 15.2764 2.01005 15.8794 2.41206 16.2814L3.61809 17.4874C3.8191 17.99 4.1206 18.0905 4.42211 18.0905C4.62312 18.0905 4.92462 17.99 5.12563 17.8894L6.33166 16.9849ZM10.8543 18.995H9.14573C9.04523 18.995 9.04523 18.8945 8.94472 18.8945L8.64322 17.0854C8.64322 16.8844 8.44221 16.6834 8.24121 16.6834C7.63819 16.4824 7.03518 16.2814 6.53266 15.9799C6.33166 15.8794 6.13065 15.8794 5.92965 15.9799L4.42211 16.9849C4.32161 17.0854 4.22111 16.9849 4.22111 16.9849L3.01508 15.7789C3.01508 15.6784 3.01508 15.5779 3.01508 15.5779L4.0201 14.1709C4.1206 13.9698 4.1206 13.7688 4.0201 13.5678C3.71859 12.9648 3.41709 12.4623 3.31658 11.7588C3.21608 11.5578 3.11558 11.4573 2.91457 11.3568L1.20603 11.0553C1.10553 11.0553 1.00503 11.0553 1.00503 10.9548V9.14573C1.00503 9.04523 1.10553 9.04523 1.20603 9.04523L2.91457 8.74372C3.11558 8.74372 3.31658 8.54271 3.31658 8.34171C3.51759 7.63819 3.71859 7.13568 4.0201 6.53266C4.1206 6.33166 4.1206 6.13065 4.0201 6.03015L3.01508 4.52261C3.01508 4.42211 3.01508 4.32161 3.01508 4.32161L4.22111 3.01508C4.32161 3.01508 4.42211 3.01508 4.42211 3.01508L5.82915 4.0201C6.03015 4.1206 6.23116 4.1206 6.43216 4.0201C7.03518 3.71859 7.63819 3.51759 8.24121 3.31658C8.44221 3.21608 8.54271 3.11558 8.64322 2.91457L8.94472 1.10553L9.04523 1.00503H10.8543C10.9548 1.00503 10.9548 1.10553 11.0553 1.10553L11.3568 2.81407C11.3568 3.01508 11.5578 3.21608 11.7588 3.21608C12.3618 3.41709 12.9648 3.61809 13.5678 3.9196C13.7688 4.0201 13.9698 4.0201 14.1709 3.9196L15.5779 2.91457H15.6784H15.7789L16.9849 4.1206C17.0854 4.22111 17.0854 4.22111 16.9849 4.32161L15.9799 5.82915C15.8794 6.03015 15.8794 6.23116 15.9799 6.43216C16.2814 6.93467 16.5829 7.53769 16.6834 8.24121C16.6834 8.44221 16.8844 8.54271 17.0854 8.64322L18.8945 8.94472C18.995 8.94472 18.995 9.04523 18.995 9.14573V10.9548C18.995 11.0553 18.8945 11.0553 18.8945 11.1558L17.0854 11.3568C16.8844 11.3568 16.6834 11.5578 16.6834 11.7588C16.4824 12.3618 16.2814 12.9648 15.9799 13.5678C15.8794 13.7688 15.8794 13.9698 15.9799 14.1709L16.9849 15.6784C16.9849 15.7789 16.9849 15.8794 16.9849 15.8794L15.7789 17.0854C15.6784 17.1859 15.6784 17.1859 15.5779 17.0854L14.1709 16.0804C13.9698 15.9799 13.7688 15.9799 13.5678 16.0804C13.0653 16.3819 12.4623 16.6834 11.7588 16.7839C11.5578 16.7839 11.4573 16.9849 11.3568 17.1859L11.0553 18.794C11.0553 18.8945 10.9548 18.995 10.8543 18.995Z" fill="#333333"/>
<path d="M10.0504 5.72864C7.63831 5.72864 5.72876 7.63819 5.72876 10.0502C5.72876 12.4623 7.63831 14.3719 10.0504 14.3719C12.4624 14.3719 14.372 12.4623 14.372 10.0502C14.2715 7.63819 12.3619 5.72864 10.0504 5.72864ZM10.0504 13.2663C8.24132 13.2663 6.83429 11.7588 6.83429 10.0502C6.83429 8.3417 8.24132 6.73366 10.0504 6.73366C11.8594 6.73366 13.2664 8.2412 13.2664 9.94974C13.2664 11.6583 11.7589 13.2663 10.0504 13.2663Z" fill="#333333"/>
</svg>
